# xmcd
#
# Track frame offsets:
#	150
#	19794
#	36567
#	49796
#	72185
#	86567
#	105299
#	120883
#	134844
#	151921
#
# Disc length: 2291 seconds
# Revision: 0
# Processed by: cddbd v1.5.2PL0 Copyright (c) Steve Scherf et al.
# Submitted via: dBpowerAMP V12.0
#
DISCID=7d08f10a
DTITLE=Carter Sampson - Lucky
DYEAR=2018
DGENRE=Country
TTITLE0=Lucky
TTITLE1=Anything Else to Do
TTITLE2=Peaches
TTITLE3=Hello Darlin'
TTITLE4=10 Penny Nail
TTITLE5=All I Got
TTITLE6=Tulsa
TTITLE7=Wild Ride
TTITLE8=Rattlesnake Kate
TTITLE9=Queen of the Silver Dollar
EXTD=
EXTT0=
EXTT1=
EXTT2=
EXTT3=
EXTT4=
EXTT5=
EXTT6=
EXTT7=
EXTT8=
EXTT9=
PLAYORDER=
